<svg xmlns="http://www.w3.org/2000/svg" viewBox="0 0 543.7 70.57"><defs><style>.a{fill:#363833}.b{fill:#1cb57b}</style></defs><title>logp</title><path class="a" d="M139.11 19.54A18.45 18.45 0 0 0 120.69 38v14.14a4.25 4.25 0 0 0 8.5 0V38A9.92 9.92 0 1 1 149 38v14.14a4.25 4.25 0 0 0 8.5 0V38a18.45 18.45 0 0 0-18.39-18.46zm-28.11 0a4.24 4.24 0 0 0-4.06 3 18.43 18.43 0 1 0 0 30.76 4.24 4.24 0 0 0 8.31-1.21V23.8a4.25 4.25 0 0 0-4.25-4.26zM96.87 47.89A9.92 9.92 0 1 1 106.8 38a9.93 9.93 0 0 1-9.93 9.89zM274.61 28h10.85a4.25 4.25 0 0 0 0-8.5h-10.85a11.34 11.34 0 0 0 0 22.68h3.76a2.83 2.83 0 1 1 0 5.67h-10.85a4.25 4.25 0 0 0 0 8.5h10.85a11.34 11.34 0 1 0 0-22.68h-3.76a2.83 2.83 0 0 1 0-5.67zM195 19.54a4.24 4.24 0 0 0-4.06 3 18.43 18.43 0 1 0 0 30.76 4.24 4.24 0 0 0 8.31-1.21V23.8a4.25 4.25 0 0 0-4.25-4.26zm-14.22 28.35A9.92 9.92 0 1 1 190.7 38a9.93 9.93 0 0 1-9.92 9.89z"/><path class="b" d="M61.44.41a5.31 5.31 0 0 0-5.31 5.31v45.36a5.31 5.31 0 1 0 10.63 0V5.72A5.31 5.31 0 0 0 61.44.41zM28.67 3.72a5.32 5.32 0 0 0-9.85 0L.39 49.08a5.31 5.31 0 0 0 9.85 4l13.5-33.23 13.5 33.23a5.31 5.31 0 0 0 9.85-4z"/><circle class="b" cx="23.74" cy="51.08" r="5.31"/><path class="a" d="M219.61 47.89h-2.83a2.84 2.84 0 0 1-2.83-2.83V6.79a4.25 4.25 0 0 0-8.5 0v38.26a11.35 11.35 0 0 0 11.34 11.34h2.83a4.25 4.25 0 0 0 0-8.5zm34.02-28.35a4.25 4.25 0 0 0-4.25 4.25v21.26a2.84 2.84 0 0 1-2.83 2.83h-2.83a9.93 9.93 0 0 1-9.93-9.88V23.8a4.25 4.25 0 1 0-8.5 0V38a18.45 18.45 0 0 0 18.43 18.42h2.83a11.32 11.32 0 0 0 2-.18 9.93 9.93 0 0 1-9 5.85 4.25 4.25 0 0 0 0 8.5 18.45 18.45 0 0 0 18.42-18.43V23.8a4.25 4.25 0 0 0-4.34-4.26zM309.27 28a4.25 4.25 0 0 0 0-8.5h-5.67v-7.04a4.25 4.25 0 0 0-8.5 0v32.6a11.35 11.35 0 0 0 11.34 11.34h2.83a4.25 4.25 0 0 0 0-8.5h-2.83a2.84 2.84 0 0 1-2.83-2.83V28z"/><path class="b" d="M365.28 0h-17A5.32 5.32 0 0 0 343 5.31v45.36a5.32 5.32 0 0 0 5.32 5.33h17a16.63 16.63 0 0 0 12.17-28 16.63 16.63 0 0 0-12.21-28zm0 10.63a6 6 0 0 1 .13 12h-11.78v-12zm0 34.71h-11.65v-12h11.78a6 6 0 0 1-.13 12zm54.83.01h-18.74v-40a5.32 5.32 0 0 0-10.63 0v45.32a5.32 5.32 0 0 0 5.32 5.33h24.05a5.32 5.32 0 1 0 0-10.63zM454.73 0a28 28 0 1 0 28 28 28 28 0 0 0-28-28zm0 45.35A17.36 17.36 0 1 1 472.1 28a17.38 17.38 0 0 1-17.37 17.35zm87.45-20.6a5.31 5.31 0 0 0-3.79-1.59h-20a5.31 5.31 0 0 0 0 10.63h13.67A17.36 17.36 0 1 1 528 15.72a5.31 5.31 0 1 0 7.52-7.52 28 28 0 0 0-39.59 39.59 28 28 0 0 0 47.76-19.2 5.31 5.31 0 0 0-1.51-3.84z"/></svg>